Coordinates
version=1
nRows=22
nColumns=24
inDegrees=yes

Units are S.I. units (second, meters, Newtons, ...)
Angles are in degrees.

endheader
time	pelvis_tilt	pelvis_list	pelvis_rotation	pelvis_tx	pelvis_ty	pelvis_tz	hip_flexion_r	hip_adduction_r	hip_rotation_r	knee_angle_r	ankle_angle_r	subtalar_angle_r	mtp_angle_r	hip_flexion_l	hip_adduction_l	hip_rotation_l	knee_angle_l	ankle_angle_l	subtalar_angle_l	mtp_angle_l	lumbar_extension	lumbar_bending	lumbar_rotation
      1.03633333	      2.69652757	     -4.14140841	      2.41922923	      0.51670129	      1.00766666	      0.31446787	      8.09543505	      7.89335834	      0.25445743	    -23.78550447	     12.22224051	    -11.50898272	     -4.45276937	      6.54340257	     -5.73243665	      1.54347389	    -69.22469564	     -0.35505325	     -4.75511529	     -0.09959785	    -13.85300749	     13.92860558	     -6.02593088
      1.04050000	      2.82668323	     -3.97401720	      2.29648629	      0.52126521	      1.00894719	      0.31497831	      7.38238253	      7.76965369	      0.43749928	    -23.22555241	     12.22478472	    -11.48183186	     -4.42601350	      7.01334657	     -5.60524204	      1.35656563	    -69.12087268	      0.36298416	     -4.52135909	     -0.23844157	    -14.04418347	     13.63995102	     -5.62815498
      1.04466667	      2.92935635	     -3.78165498	      2.16625246	      0.52577394	      1.01014178	      0.31545101	      6.72467016	      7.60729043	      0.59842949	    -22.71242983	     12.19989582	    -11.44487306	     -4.39767436	      7.50823965	     -5.43630285	      1.17628994	    -68.97978656	      1.07905543	     -4.37159034	     -0.38400691	    -14.21717148	     13.33175213	     -5.33744931
      1.04883333	      3.01867628	     -3.57757289	      2.03524589	      0.53028302	      1.01128572	      0.31590694	      6.08897296	      7.42508276	      0.74538775	    -22.21395503	     12.18782426	    -11.38630158	     -4.36907164	      8.00781337	     -5.25204747	      0.99811511	    -68.79103643	      1.77175770	     -4.22638488	     -0.52367890	    -14.36615189	     13.01380886	     -5.07252733
      1.05300000	      3.09405455	     -3.38363761	      1.90726740	      0.53475422	      1.01236920	      0.31633588	      5.47916758	      7.24820964	      0.88423423	    -21.72618751	     12.13541121	    -11.32149519	     -4.34906807	      8.52277841	     -5.07568672	      0.82827003	    -68.57322513	      2.45976294	     -4.12272688	     -0.61909400	    -14.51481194	     12.70891368	     -4.87265960
      1.05716667	      3.21091229	     -3.19930165	      1.77396932	      0.53929336	      1.01349325	      0.31677612	      4.79920702	      7.08413175	      1.04597339	    -21.19055780	     12.13450153	    -11.28896278	     -4.31778251	      8.96826191	     -4.92321239	      0.64131558	    -68.28716220	      3.09613679	     -3.95712226	     -0.77090845	    -14.67577284	     12.41993232	     -4.53727685
      1.06133333	      3.30185199	     -3.01463234	      1.64072849	      0.54378623	      1.01452540	      0.31719166	      4.16717607	      6.91300507	      1.19619155	    -20.68557016	     12.10077576	    -11.24860848	     -4.28768106	      9.44199396	     -4.76172173	      0.46857565	    -67.97457370	      3.72443295	     -3.84066598	     -0.91497374	    -14.82333708	     12.12469505	     -4.27668517
      1.06550000	      3.41204227	     -2.82941730	      1.50634242	      0.54828282	      1.01555181	      0.31759221	      3.51395054	      6.73702367	      1.34347773	    -20.17734409	     12.06676495	    -11.20407829	     -4.25668035	      9.88329470	     -4.60110039	      0.29390623	    -67.61536111	      4.31755559	     -3.74246742	     -1.06134142	    -14.99282469	     11.83432573	     -4.01578077
      1.06966667	      3.50766397	     -2.64178526	      1.36823342	      0.55277345	      1.01652267	      0.31797972	      2.88295822	      6.55429682	      1.49210851	    -19.67878722	     12.03671572	    -11.15546666	     -4.22469358	     10.32917824	     -4.43322933	      0.12574303	    -67.21085172	      4.87585786	     -3.66629085	     -1.21184554	    -15.14406852	     11.53784603	     -3.75362628
      1.07383333	      3.59367752	     -2.44351030	      1.22965289	      0.55724173	      1.01744414	      0.31834776	      2.27329448	      6.35482581	      1.63523236	    -19.19768657	     11.99258770	    -11.09090426	     -4.19901406	     10.77923573	     -4.24721050	     -0.03087301	    -66.76985899	      5.39867556	     -3.62541109	     -1.33160195	    -15.30020828	     11.23191659	     -3.53810705
      1.07800000	      3.73315145	     -2.27160831	      1.08938820	      0.56175846	      1.01839038	      0.31869817	      1.58945689	      6.18045929	      1.77418467	    -18.68309114	     11.97809984	    -11.04366147	     -4.16803716	     11.15323459	     -4.09922088	     -0.19900866	    -66.28026789	      5.88423066	     -3.58154769	     -1.47617778	    -15.48028416	     10.96493071	     -3.25110800
      1.08216667	      3.83806912	     -2.09961722	      0.93900320	      0.56624311	      1.01924542	      0.31904115	      0.95655408	      6.00204433	      1.93078079	    -18.18965231	     11.93161309	    -10.98481508	     -4.12225988	     11.55962509	     -3.94073621	     -0.35400304	    -65.76145050	      6.34142895	     -3.60791251	     -1.69145993	    -15.65007549	     10.69583540	     -2.94035083
      1.08633333	      3.94165160	     -1.92669281	      0.79780414	      0.57072875	      1.02005246	      0.31935745	      0.32867046	      5.81802439	      2.06761158	    -17.70161325	     11.90224412	    -10.93095535	     -4.07410307	     11.95960733	     -3.77819461	     -0.49256931	    -65.20507463	      6.76183739	     -3.61331690	     -1.91593488	    -15.80632975	     10.41958983	     -2.68702165
      1.09050000	      3.98886795	     -1.72452023	      0.65981332	      0.57520952	      1.02074504	      0.31963848	     -0.21456004	      5.59446855	      2.17376620	    -17.26410314	     11.88106276	    -10.85332650	     -4.05874831	     12.41086476	     -3.56678307	     -0.59988856	    -64.60692740	      7.14048569	     -3.63175905	     -1.98550944	    -15.88299891	     10.13980224	     -2.57020411
      1.09466667	      4.12941843	     -1.55876729	      0.51720954	      0.57970573	      1.02151110	      0.31993628	     -0.88475155	      5.41070545	      2.30265503	    -16.76949163	     11.88893819	    -10.78523823	     -4.03229478	     12.74737173	     -3.40919630	     -0.72178666	    -63.97232229	      7.46733854	     -3.68542726	     -2.10808848	    -16.08397164	      9.86165813	     -2.25922304
      1.09883333	      4.22752045	     -1.40069230	      0.36924249	      0.58418521	      1.02216930	      0.32020287	     -1.49490078	      5.23032164	      2.43672850	    -16.29867242	     11.87534493	    -10.70873520	     -3.99905239	     13.12303756	     -3.24801767	     -0.82427150	    -63.31050563	      7.78644958	     -3.78027436	     -2.26749875	    -16.23792640	      9.61321380	     -1.96945926
      1.10300000	      4.31540677	     -1.20781621	      0.22756628	      0.58866291	      1.02278773	      0.32042702	     -2.07997235	      5.00460040	      2.53441092	    -15.85878019	     11.86275460	    -10.62972029	     -3.98219569	     13.49340166	     -3.03253013	     -0.89359146	    -62.59509332	      8.05344965	     -3.84998268	     -2.35055638	    -16.36444308	      9.34979066	     -1.80063611
      1.10716667	      4.42981904	     -1.05157112	      0.08931788	      0.59314847	      1.02337394	      0.32065967	     -2.70731608	      4.81886793	      2.64289960	    -15.38761805	     11.88837719	    -10.54029091	     -3.95950942	     13.83019160	     -2.86656094	     -0.96436812	    -61.86159087	      8.28194312	     -3.98030741	     -2.46447993	    -16.53608761	      9.08151270	     -1.51365096
      1.11133333	      4.49615654	     -0.88960593	     -0.04967587	      0.59762214	      1.02384821	      0.32085154	     -3.26280299	      4.61969792	      2.73068184	    -14.95426964	     11.85793696	    -10.45037780	     -3.94629684	     14.20923788	     -2.67989803	     -1.00506439	    -61.09607379	      8.51441731	     -4.09020876	     -2.53838888	    -16.63931054	      8.85071841	     -1.32327682
      1.11550000	      4.61172027	     -0.74303634	     -0.18055959	      0.60209725	      1.02433293	      0.32103979	     -3.88555897	      4.43821255	      2.83045284	    -14.49406478	     11.90458357	    -10.36652584	     -3.92792840	     14.52517496	     -2.51145857	     -1.03251924	    -60.29856674	      8.67792500	     -4.24476684	     -2.63841033	    -16.81300272	      8.60256706	     -1.04307230
      1.11966667	      4.69310858	     -0.58028267	     -0.31413635	      0.60657487	      1.02473427	      0.32119936	     -4.45632555	      4.23260321	      2.90693608	    -14.06351705	     11.92827307	    -10.26617746	     -3.91201623	     14.86236056	     -2.31558554	     -1.04125112	    -59.45936602	      8.82698763	     -4.39989515	     -2.72973060	    -16.94022886	      8.35386055	     -0.80961670
      1.12383333	      4.78873485	     -0.44175704	     -0.43723294	      0.61104359	      1.02510694	      0.32133313	     -5.04737746	      4.05164729	      2.98105916	    -13.61945097	     11.94108470	    -10.16912915	     -3.89861502	     15.17627917	     -2.14261197	     -1.02383683	    -58.59449373	      8.95655608	     -4.55187355	     -2.81595494	    -17.08516746	      8.13726412	     -0.57632187
